<mxfile host="Electron" agent="Mozilla/5.0 (Windows NT 10.0; Win64; x64) AppleWebKit/537.36 (KHTML, like Gecko) draw.io/26.0.4 Chrome/128.0.6613.186 Electron/32.2.5 Safari/537.36" version="26.0.4">
  <diagram name="Page-1" id="3b9zAUFx66I9WF3HCPom">
    <mxGraphModel dx="683" dy="402" grid="1" gridSize="10" guides="1" tooltips="1" connect="1" arrows="1" fold="1" page="1" pageScale="1" pageWidth="827" pageHeight="1169" math="0" shadow="0">
      <root>
        <mxCell id="0" />
        <mxCell id="1" parent="0" />
        <mxCell id="nsiHRMD0S5bc9St1Y8Da-12" style="edgeStyle=orthogonalEdgeStyle;rounded=0;orthogonalLoop=1;jettySize=auto;html=1;exitX=1;exitY=0.25;exitDx=0;exitDy=0;entryX=0;entryY=0.25;entryDx=0;entryDy=0;endArrow=none;endFill=0;" edge="1" parent="1" source="nsiHRMD0S5bc9St1Y8Da-1" target="nsiHRMD0S5bc9St1Y8Da-3">
          <mxGeometry relative="1" as="geometry" />
        </mxCell>
        <mxCell id="nsiHRMD0S5bc9St1Y8Da-1" value="MCU" style="rounded=0;whiteSpace=wrap;html=1;" vertex="1" parent="1">
          <mxGeometry x="190" y="160" width="70" height="160" as="geometry" />
        </mxCell>
        <mxCell id="nsiHRMD0S5bc9St1Y8Da-15" style="edgeStyle=orthogonalEdgeStyle;rounded=0;orthogonalLoop=1;jettySize=auto;html=1;exitX=0;exitY=0.75;exitDx=0;exitDy=0;entryX=1;entryY=0.75;entryDx=0;entryDy=0;endArrow=none;endFill=0;" edge="1" parent="1">
          <mxGeometry relative="1" as="geometry">
            <mxPoint x="530" y="290" as="sourcePoint" />
            <mxPoint x="260" y="290" as="targetPoint" />
          </mxGeometry>
        </mxCell>
        <mxCell id="nsiHRMD0S5bc9St1Y8Da-3" value="TDC7200" style="rounded=0;whiteSpace=wrap;html=1;" vertex="1" parent="1">
          <mxGeometry x="530" y="160" width="70" height="160" as="geometry" />
        </mxCell>
        <mxCell id="nsiHRMD0S5bc9St1Y8Da-10" style="edgeStyle=orthogonalEdgeStyle;rounded=0;orthogonalLoop=1;jettySize=auto;html=1;exitX=1;exitY=0.5;exitDx=0;exitDy=0;exitPerimeter=0;entryX=0;entryY=0.5;entryDx=0;entryDy=0;endArrow=none;endFill=0;" edge="1" parent="1" source="nsiHRMD0S5bc9St1Y8Da-9" target="nsiHRMD0S5bc9St1Y8Da-3">
          <mxGeometry relative="1" as="geometry" />
        </mxCell>
        <mxCell id="nsiHRMD0S5bc9St1Y8Da-11" style="edgeStyle=orthogonalEdgeStyle;rounded=0;orthogonalLoop=1;jettySize=auto;html=1;exitX=0;exitY=0.5;exitDx=0;exitDy=0;exitPerimeter=0;entryX=1;entryY=0.5;entryDx=0;entryDy=0;endArrow=none;endFill=0;" edge="1" parent="1" source="nsiHRMD0S5bc9St1Y8Da-9" target="nsiHRMD0S5bc9St1Y8Da-1">
          <mxGeometry relative="1" as="geometry" />
        </mxCell>
        <mxCell id="nsiHRMD0S5bc9St1Y8Da-9" value="" style="pointerEvents=1;verticalLabelPosition=bottom;shadow=0;dashed=0;align=center;html=1;verticalAlign=top;shape=mxgraph.electrical.miscellaneous.sensing_link_squib;fillColor=#f8cecc;strokeColor=#b85450;" vertex="1" parent="1">
          <mxGeometry x="320" y="220" width="130" height="40" as="geometry" />
        </mxCell>
        <mxCell id="nsiHRMD0S5bc9St1Y8Da-13" value="start" style="text;html=1;align=center;verticalAlign=middle;resizable=0;points=[];autosize=1;strokeColor=none;fillColor=none;" vertex="1" parent="1">
          <mxGeometry x="265" y="178" width="50" height="30" as="geometry" />
        </mxCell>
        <mxCell id="nsiHRMD0S5bc9St1Y8Da-14" value="stop" style="text;html=1;align=center;verticalAlign=middle;resizable=0;points=[];autosize=1;strokeColor=none;fillColor=none;" vertex="1" parent="1">
          <mxGeometry x="265" y="218" width="50" height="30" as="geometry" />
        </mxCell>
        <mxCell id="nsiHRMD0S5bc9St1Y8Da-16" value="spi" style="text;html=1;align=center;verticalAlign=middle;resizable=0;points=[];autosize=1;strokeColor=none;fillColor=none;" vertex="1" parent="1">
          <mxGeometry x="270" y="268" width="40" height="30" as="geometry" />
        </mxCell>
        <mxCell id="nsiHRMD0S5bc9St1Y8Da-17" value="" style="endArrow=none;html=1;rounded=0;" edge="1" parent="1">
          <mxGeometry width="50" height="50" relative="1" as="geometry">
            <mxPoint x="314" y="299" as="sourcePoint" />
            <mxPoint x="324" y="279" as="targetPoint" />
          </mxGeometry>
        </mxCell>
        <mxCell id="nsiHRMD0S5bc9St1Y8Da-18" value="&lt;font style=&quot;font-size: 9px;&quot;&gt;4&lt;/font&gt;" style="text;html=1;align=center;verticalAlign=middle;resizable=0;points=[];autosize=1;strokeColor=none;fillColor=none;" vertex="1" parent="1">
          <mxGeometry x="297" y="290" width="30" height="30" as="geometry" />
        </mxCell>
        <mxCell id="nsiHRMD0S5bc9St1Y8Da-19" value="" style="endArrow=none;html=1;rounded=0;entryX=0.035;entryY=0.615;entryDx=0;entryDy=0;entryPerimeter=0;strokeWidth=0.5;" edge="1" parent="1" target="nsiHRMD0S5bc9St1Y8Da-9">
          <mxGeometry width="50" height="50" relative="1" as="geometry">
            <mxPoint x="325" y="270" as="sourcePoint" />
            <mxPoint x="320" y="248" as="targetPoint" />
          </mxGeometry>
        </mxCell>
        <mxCell id="nsiHRMD0S5bc9St1Y8Da-20" value="" style="endArrow=none;html=1;rounded=0;entryX=0.035;entryY=0.615;entryDx=0;entryDy=0;entryPerimeter=0;strokeWidth=0.5;" edge="1" parent="1">
          <mxGeometry width="50" height="50" relative="1" as="geometry">
            <mxPoint x="446" y="269" as="sourcePoint" />
            <mxPoint x="446" y="244" as="targetPoint" />
          </mxGeometry>
        </mxCell>
        <mxCell id="nsiHRMD0S5bc9St1Y8Da-22" value="" style="endArrow=classicThin;startArrow=classicThin;html=1;rounded=0;entryX=0.966;entryY=1.025;entryDx=0;entryDy=0;entryPerimeter=0;exitX=0.041;exitY=1.011;exitDx=0;exitDy=0;exitPerimeter=0;strokeWidth=0.5;startFill=1;endFill=1;" edge="1" parent="1">
          <mxGeometry width="50" height="50" relative="1" as="geometry">
            <mxPoint x="325.33000000000004" y="266.44000000000005" as="sourcePoint" />
            <mxPoint x="445.5799999999999" y="267" as="targetPoint" />
          </mxGeometry>
        </mxCell>
        <mxCell id="nsiHRMD0S5bc9St1Y8Da-23" value="s&lt;sub&gt;x&lt;/sub&gt;" style="text;html=1;align=center;verticalAlign=middle;resizable=0;points=[];autosize=1;strokeColor=none;fillColor=none;" vertex="1" parent="1">
          <mxGeometry x="408" y="242" width="30" height="30" as="geometry" />
        </mxCell>
      </root>
    </mxGraphModel>
  </diagram>
</mxfile>
